# xmcd
#
# Track frame offsets:
#	150
#	16137
#	32790
#	45811
#	62776
#	76663
#	92772
#	109444
#	125075
#	140441
#
# Disc length: 2170 seconds
#
# Revision: 0
# Processed by: cddbd v1.4PL0 Copyright (c) Steve Scherf et al.
# Submitted via: EasyCDDAExtractor 4.6.9.1
#
DISCID=7b08780a
DTITLE=Marty Allen - Living Life
DYEAR=2002
DGENRE=Country
TTITLE0=I Can Be Your Man
TTITLE1=Juanita
TTITLE2=Cheque Spending Friday Night
TTITLE3=You Move Me
TTITLE4=Rio
TTITLE5=Hold My Hand
TTITLE6=Relax Unwind
TTITLE7=This Town
TTITLE8=Future Memories
TTITLE9=Rose In Paradise
EXTD=
EXTT0=
EXTT1=
EXTT2=
EXTT3=
EXTT4=
EXTT5=
EXTT6=
EXTT7=
EXTT8=
EXTT9=
PLAYORDER=
